HIERARCHY
ROOT Pelvis
{
	OFFSET 0.000000 0.000000 0.000000
	CHANNELS 6 Xposition Yposition Zposition Xrotation Yrotation Zrotation
	JOINT LeftUpLeg_virtual
	{
		OFFSET 0.000000 0.000000 0.000000
		CHANNELS 3 Xrotation Yrotation Zrotation
		JOINT LeftUpLeg
		{
			OFFSET 18.735201 -5.666702 -4.541200
			CHANNELS 3 Xrotation Yrotation Zrotation
			JOINT LeftLeg
			{
				OFFSET -0.021200 -31.938179 0.493100
				CHANNELS 3 Xrotation Yrotation Zrotation
				JOINT LeftFoot
				{
					OFFSET 0.021200 -31.938179 -4.336299
					CHANNELS 3 Xrotation Yrotation Zrotation
					JOINT LeftToeBase
					{
						OFFSET 0.943001 -26.722000 15.023500
						CHANNELS 3 Xrotation Yrotation Zrotation
						End Site
						{
							OFFSET 0 0 0
						}
					}
				}
			}
		}
	}
	JOINT RightUpLeg_virtual
	{
		OFFSET 0.000000 0.000000 0.000000
		CHANNELS 3 Xrotation Yrotation Zrotation
		JOINT RightUpLeg
		{
			OFFSET -18.735201 -5.666702 -4.541200
			CHANNELS 3 Xrotation Yrotation Zrotation
			JOINT RightLeg
			{
				OFFSET 0.018946 -31.938133 0.493100
				CHANNELS 3 Xrotation Yrotation Zrotation
				JOINT RightFoot
				{
					OFFSET -0.018946 -31.938126 -4.336299
					CHANNELS 3 Xrotation Yrotation Zrotation
					JOINT RightToeBase
					{
						OFFSET -0.943001 -26.722004 15.023500
						CHANNELS 3 Xrotation Yrotation Zrotation
						End Site
						{
							OFFSET 0 0 0
						}
					}
				}
			}
		}
	}
	JOINT Hips_virtual
	{
		OFFSET 0.000000 0.000000 0.000000
		CHANNELS 3 Xrotation Yrotation Zrotation
		JOINT Hips
		{
			OFFSET -0.000000 -0.000000 -0.000000
			CHANNELS 3 Xrotation Yrotation Zrotation
			JOINT Spine
			{
				OFFSET 0.000000 10.199997 -0.299500
				CHANNELS 3 Xrotation Yrotation Zrotation
				JOINT Spine1
				{
					OFFSET 0.000000 11.900002 -1.516600
					CHANNELS 3 Xrotation Yrotation Zrotation
					JOINT Spine2
					{
						OFFSET 0.000000 13.600006 -2.842500
						CHANNELS 3 Xrotation Yrotation Zrotation
						JOINT Neck_virtual
						{
							OFFSET 0.000000 0.000000 0.000000
							CHANNELS 3 Xrotation Yrotation Zrotation
							JOINT Neck
							{
								OFFSET 0.000000 9.624100 -2.890100
								CHANNELS 3 Xrotation Yrotation Zrotation
								JOINT Head
								{
									OFFSET 0.000000 14.068802 -1.351900
									CHANNELS 3 Xrotation Yrotation Zrotation
									End Site
									{
										OFFSET 0 0 0
									}
								}
							}
						}
						JOINT LeftShoulder_virtual
						{
							OFFSET 0.000000 0.000000 0.000000
							CHANNELS 3 Xrotation Yrotation Zrotation
							JOINT LeftShoulder
							{
								OFFSET 15.263000 10.923401 -0.547700
								CHANNELS 3 Xrotation Yrotation Zrotation
								JOINT LeftArm
								{
									OFFSET 25.438599 -2.830597 -13.032500
									CHANNELS 3 Xrotation Yrotation Zrotation
									JOINT LeftForeArm
									{
										OFFSET 29.960503 0.000000 0.000000
										CHANNELS 3 Xrotation Yrotation Zrotation
										JOINT LeftHand
										{
											OFFSET 27.849251 0.000000 0.000000
											CHANNELS 3 Xrotation Yrotation Zrotation
											End Site
											{
												OFFSET 0 0 0
											}
										}
									}
								}
							}
						}
						JOINT RightShoulder_virtual
						{
							OFFSET 0.000000 0.000000 0.000000
							CHANNELS 3 Xrotation Yrotation Zrotation
							JOINT RightShoulder
							{
								OFFSET -15.263000 10.923401 -0.547700
								CHANNELS 3 Xrotation Yrotation Zrotation
								JOINT RightArm
								{
									OFFSET -25.438599 -2.830597 -13.032500
									CHANNELS 3 Xrotation Yrotation Zrotation
									JOINT RightForeArm
									{
										OFFSET -29.960503 0.000000 0.000000
										CHANNELS 3 Xrotation Yrotation Zrotation
										JOINT RightHand
										{
											OFFSET -27.849251 0.000000 0.000000
											CHANNELS 3 Xrotation Yrotation Zrotation
											End Site
											{
												OFFSET 0 0 0
											}
										}
									}
								}
							}
						}
					}
				}
			}
		}
	}
}
MOTION
Frames: 5
Frame Time: 0.03333333
0.740384 203.250031 3.263584 0.000000 0.000000 0.000000 -4.965695 3.462796 4.182687 -10.881182 11.029862 7.164764 12.451577 -5.400493 1.659504 -0.422027 4.272353 -12.169660 0.000000 0.000000 0.000000 -4.986731 5.631766 2.747892 -3.220750 -17.549973 -7.506572 22.554031 7.085291 -1.730020 -29.087856 2.900051 14.944440 0.000000 0.000000 0.000000 -6.377064 4.807658 4.812184 0.564065 1.826198 -3.390512 3.384956 -0.607762 1.708338 10.617324 -0.530618 3.211402 0.000000 0.000000 0.000000 9.460867 -0.228295 2.680270 -0.643729 0.515451 -1.916685 0.000000 0.000000 0.000000 9.848228 0.110493 2.569053 0.653862 16.295542 -10.306252 1.565114 -16.432849 -61.210987 2.070364 -47.035404 1.559198 0.000000 0.000000 0.000000 9.339845 0.082976 2.566035 1.236708 3.673667 4.585897 -0.822511 10.686923 57.483985 0.078467 41.290570 -0.458290 0.000000 0.000000 0.000000 
0.651653 203.231064 3.224911 0.000000 0.000000 0.000000 -4.880329 3.651405 4.227175 -10.867392 11.704049 7.341741 12.460589 -5.134513 1.481190 -0.740624 4.887125 -11.938459 0.000000 0.000000 0.000000 -4.770766 5.952638 2.832372 -3.451274 -17.561173 -7.564103 22.621788 6.875963 -1.661806 -28.025660 3.261983 14.736970 0.000000 0.000000 0.000000 -6.257724 4.977097 4.898799 0.522105 1.715631 -3.231686 3.406280 -0.595178 1.651992 10.514442 -0.516472 3.247384 0.000000 0.000000 0.000000 9.451384 -0.215218 2.692938 -0.605684 0.511728 -1.889376 0.000000 0.000000 0.000000 9.754017 0.142948 2.563782 0.667773 16.427592 -10.287835 1.300738 -16.259679 -61.238766 2.024088 -47.239672 1.655320 0.000000 0.000000 0.000000 9.247800 0.078027 2.585116 1.265698 3.512609 4.466764 -0.883263 11.059778 56.977506 0.121508 41.588609 -0.321669 0.000000 0.000000 0.000000 
0.546534 203.140152 3.169567 0.000000 0.000000 0.000000 -4.545822 4.052479 4.296113 -11.195297 12.539381 7.509229 12.812086 -4.561026 1.372563 -1.551067 5.793877 -11.396939 0.000000 0.000000 0.000000 -4.336243 6.417142 2.915329 -3.752741 -17.748168 -7.606577 22.785115 6.334960 -1.577336 -27.633899 3.448210 14.601536 0.000000 0.000000 0.000000 -5.942373 5.437315 4.948242 0.397316 1.737444 -3.012203 3.446621 -0.465839 1.571316 10.370297 -0.583016 3.284654 0.000000 0.000000 0.000000 9.408428 -0.251469 2.689174 -0.558102 0.508473 -1.911203 0.000000 0.000000 0.000000 9.628452 0.119520 2.559758 0.689848 16.530712 -10.184820 0.775299 -16.364833 -61.142221 1.795414 -47.565007 1.616657 0.000000 0.000000 0.000000 9.130743 0.029354 2.622352 1.284044 3.158018 4.241704 -0.380002 12.617481 56.256816 0.195273 41.951667 -0.250253 0.000000 0.000000 0.000000 
0.429266 202.969513 3.066204 0.000000 0.000000 0.000000 -3.964902 4.620690 4.347191 -12.000982 13.421632 7.637087 13.614500 -3.866909 1.292254 -2.621124 6.665340 -10.758527 0.000000 0.000000 0.000000 -3.750149 6.941609 2.942243 -4.121763 -18.059456 -7.644177 23.152885 5.588296 -1.416190 -28.142500 3.436939 14.755650 0.000000 0.000000 0.000000 -5.460949 6.083097 4.935968 0.264204 1.869316 -2.842895 3.551744 -0.253926 1.482528 10.213667 -0.733891 3.334314 0.000000 0.000000 0.000000 9.329812 -0.365179 2.695200 -0.512832 0.514187 -1.964463 0.000000 0.000000 0.000000 9.489749 0.021325 2.570442 0.702612 16.545775 -10.029954 0.105057 -16.695769 -60.790405 1.388910 -47.942443 1.398910 0.000000 0.000000 0.000000 8.997995 -0.086341 2.673950 1.303925 2.722358 3.986645 1.018163 15.126569 55.054798 0.260920 42.984570 -0.232543 0.000000 0.000000 0.000000 
0.342495 202.730743 2.934738 0.000000 0.000000 0.000000 -3.264870 5.259949 4.311194 -13.464874 14.270405 7.718080 15.066187 -3.177611 1.141979 -3.486457 7.246313 -10.223303 0.000000 0.000000 0.000000 -3.106060 7.497134 2.854223 -4.598871 -18.476220 -7.629054 23.939465 4.671244 -1.129340 -29.526150 3.220615 15.236958 0.000000 0.000000 0.000000 -4.860033 6.851228 4.814818 0.201876 2.009289 -2.738541 3.720315 -0.023690 1.418294 10.098456 -0.970615 3.410910 0.000000 0.000000 0.000000 9.229238 -0.558872 2.718870 -0.501381 0.517571 -2.018271 0.000000 0.000000 0.000000 9.359453 -0.160283 2.598426 0.700312 16.399327 -9.850045 -0.370199 -17.274745 -59.962688 0.864753 -48.462180 1.022937 0.000000 0.000000 0.000000 8.907376 -0.280676 2.737623 1.334362 2.366019 3.728785 3.521666 18.230881 53.004621 0.312849 45.201253 -0.199302 0.000000 0.000000 0.000000 
